<svg width="36" height="29" viewBox="0 0 36 29" version="1.1" xmlns="http://www.w3.org/2000/svg" xmlns:xlink="http://www.w3.org/1999/xlink">
<title>Group</title>
<desc>Created using Figma</desc>
<g id="Canvas" transform="translate(-780 -186)">
<g id="Group">
<g id="twitter">
<use xlink:href="#path0_fill" transform="translate(780 186)" fill="#FFFFFF"/>
</g>
</g>
</g>
<defs>
<path id="path0_fill" d="M 11.3213 28.8C 24.9062 28.8 32.3366 17.7188 32.3366 8.10928C 32.3366 7.79454 32.3366 7.48121 32.315 7.16931C 33.7606 6.13989 35.0084 4.86528 36 3.40517C 34.652 3.99325 33.222 4.37892 31.7578 4.54929C 33.2996 3.64049 34.4536 2.21109 35.005 0.527122C 33.5551 1.37417 31.9689 1.97112 30.3149 2.29223C 29.2013 1.12639 27.7284 0.354394 26.1243 0.0957177C 24.5202 -0.162959 22.8741 0.1061 21.441 0.861259C 20.0078 1.61642 18.8673 2.81558 18.1961 4.27317C 17.5249 5.73076 17.3603 7.36552 17.7278 8.92449C 14.7913 8.77955 11.9186 8.02823 9.29612 6.7193C 6.67366 5.41037 4.36008 3.57309 2.5056 1.32674C 1.56109 2.92761 1.27181 4.82273 1.69665 6.62622C 2.12149 8.42971 3.22851 10.006 4.79232 11.0341C 3.61691 10.9998 2.46712 10.6876 1.44 10.1239C 1.44 10.1537 1.44 10.1849 1.44 10.2161C 1.44047 11.895 2.03078 13.5221 3.11081 14.8214C 4.19084 16.1206 5.69409 17.0121 7.3656 17.3445C 6.27821 17.6365 5.13732 17.6792 4.03056 17.4693C 4.50253 18.9142 5.42141 20.1778 6.65866 21.0833C 7.89592 21.9887 9.38968 22.4908 10.931 22.5193C 8.31562 24.5431 5.08473 25.6417 1.75824 25.6384C 1.17058 25.6373 0.583494 25.6023 2.04636e-15 25.5335C 3.37772 27.6676 7.30787 28.7996 11.3213 28.7943"/>
</defs>
</svg>
