<svg width="36" height="36" viewBox="0 0 36 36" version="1.1" xmlns="http://www.w3.org/2000/svg" xmlns:xlink="http://www.w3.org/1999/xlink">
<title>ig-logo</title>
<desc>Created using Figma</desc>
<g id="Canvas" transform="translate(229 -148)">
<g id="ig-logo">
<g id="Page 1">
<g id="Group 2">
<mask id="mask0_alpha" mask-type="alpha">
<g id="mask 2">
<g id="Vector">
<use xlink:href="#path0_fill" transform="translate(-229 148)" fill="#FFFFFF"/>
</g>
</g>
</mask>
<g id="Fill 1" mask="url(#mask0_alpha)">
<use xlink:href="#path1_fill" transform="translate(-229 148)" fill="#FFFFFF"/>
</g>
<g id="Fill 4" mask="url(#mask0_alpha)">
<use xlink:href="#path2_fill" transform="translate(-220.243 156.758)" fill="#FFFFFF"/>
</g>
<g id="Fill 5" mask="url(#mask0_alpha)">
<use xlink:href="#path3_fill" transform="translate(-203.552 154.232)" fill="#FFFFFF"/>
</g>
</g>
</g>
</g>
</g>
<defs>
<path id="path0_fill" d="M 0 36L 36 36L 36 -4.00377e-10L 0 -4.00377e-10L 0 36Z"/>
<path id="path1_fill" fill-rule="evenodd" d="M 18 -4.00377e-10C 13.1115 -4.00377e-10 12.4985 0.0207233 10.5786 0.108333C 8.66273 0.195728 7.35425 0.500074 6.20932 0.945125C 5.02566 1.40511 4.02184 2.02066 3.0211 3.02146C 2.02042 4.02232 1.40494 5.02626 0.945012 6.21006C 0.500015 7.35512 0.195705 8.66376 0.10832 10.5799C 0.0207208 12.5 0 13.1131 0 18.0022C 0 22.8912 0.0207208 23.5043 0.10832 25.4244C 0.195705 27.3405 0.500015 28.6492 0.945012 29.7942C 1.40494 30.978 2.02042 31.982 3.0211 32.9828C 4.02184 33.9836 5.02566 34.5992 6.20932 35.0592C 7.35425 35.5042 8.66273 35.8086 10.5786 35.896C 12.4985 35.9836 13.1115 36.0043 18 36.0043C 22.8885 36.0043 23.5015 35.9836 25.4214 35.896C 27.3373 35.8086 28.6458 35.5042 29.7907 35.0592C 30.9743 34.5992 31.9782 33.9836 32.9789 32.9828C 33.9796 31.982 34.5951 30.978 35.0551 29.7942C 35.5 28.6492 35.8043 27.3405 35.8917 25.4244C 35.9793 23.5043 36 22.8912 36 18.0022C 36 13.1131 35.9793 12.5 35.8917 10.5799C 35.8043 8.66376 35.5 7.35512 35.0551 6.21006C 34.5951 5.02626 33.9796 4.02232 32.9789 3.02146C 31.9782 2.02066 30.9743 1.40511 29.7907 0.945125C 28.6458 0.500074 27.3373 0.195728 25.4214 0.108333C 23.5015 0.0207233 22.8885 -4.00377e-10 18 -4.00377e-10ZM 18 3.24362C 22.8062 3.24362 23.3755 3.26199 25.2735 3.3486C 27.0285 3.42863 27.9816 3.7219 28.6159 3.96844C 29.4561 4.29501 30.0557 4.68511 30.6855 5.3151C 31.3155 5.94501 31.7055 6.5447 32.032 7.38499C 32.2785 8.01934 32.5718 8.97254 32.6518 10.7277C 32.7384 12.626 32.7568 13.1954 32.7568 18.0022C 32.7568 22.8089 32.7384 23.3783 32.6518 25.2766C 32.5718 27.0317 32.2785 27.9849 32.032 28.6193C 31.7055 29.4596 31.3155 30.0593 30.6855 30.6892C 30.0557 31.3192 29.4561 31.7093 28.6159 32.0358C 27.9816 32.2824 27.0285 32.5757 25.2735 32.6557C 23.3758 32.7423 22.8066 32.7607 18 32.7607C 13.1934 32.7607 12.6243 32.7423 10.7265 32.6557C 8.97147 32.5757 8.01839 32.2824 7.38412 32.0358C 6.54392 31.7093 5.9443 31.3192 5.31446 30.6892C 4.68462 30.0593 4.2945 29.4596 3.96797 28.6193C 3.72146 27.9849 3.42822 27.0317 3.3482 25.2766C 3.2616 23.3783 3.24324 22.8089 3.24324 18.0022C 3.24324 13.1954 3.2616 12.626 3.3482 10.7277C 3.42822 8.97254 3.72146 8.01934 3.96797 7.38499C 4.2945 6.5447 4.68455 5.94501 5.31446 5.3151C 5.9443 4.68511 6.54392 4.29501 7.38412 3.96844C 8.01839 3.7219 8.97147 3.42863 10.7265 3.3486C 12.6245 3.26199 13.1938 3.24362 18 3.24362Z"/>
<path id="path2_fill" fill-rule="evenodd" d="M 9.24327 15.2451C 5.92951 15.2451 3.24324 12.5585 3.24324 9.24437C 3.24324 5.93022 5.92951 3.24362 9.24327 3.24362C 12.557 3.24362 15.2432 5.93022 15.2432 9.24437C 15.2432 12.5585 12.557 15.2451 9.24327 15.2451ZM 9.24327 -2.61693e-07C 4.13831 -2.61693e-07 -1.74441e-08 4.1388 -1.74441e-08 9.24437C -1.74441e-08 14.3499 4.13831 18.4887 9.24327 18.4887C 14.3482 18.4887 18.4865 14.3499 18.4865 9.24437C 18.4865 4.1388 14.3482 -2.61693e-07 9.24327 -2.61693e-07Z"/>
<path id="path3_fill" fill-rule="evenodd" d="M 4.32001 2.1603C 4.32001 3.35339 3.35291 4.32052 2.15997 4.32052C 0.96709 4.32052 -1.06409e-06 3.35339 -1.06409e-06 2.1603C -1.06409e-06 0.967206 0.96709 7.85079e-08 2.15997 7.85079e-08C 3.35291 7.85079e-08 4.32001 0.967206 4.32001 2.1603Z"/>
</defs>
</svg>
